<svg xmlns="http://www.w3.org/2000/svg" xmlns:xlink="http://www.w3.org/1999/xlink" viewBox="0,0,256,256" width="100px" height="100px"><g fill="#803d3b" fill-rule="nonzero" stroke="none" stroke-width="1" stroke-linecap="butt" stroke-linejoin="miter" stroke-miterlimit="10" stroke-dasharray="" stroke-dashoffset="0" font-family="none" font-weight="none" font-size="none" text-anchor="none" style="mix-blend-mode: normal"><g transform="scale(5.12,5.12)"><path d="M23.90625,0.96875c-0.04297,0.00781 -0.08594,0.01953 -0.125,0.03125c-0.46484,0.10547 -0.79297,0.52344 -0.78125,1c0,3.05469 -1.16406,3.97656 -2.65625,5.3125c-1.49219,1.33594 -3.3125,3.09766 -3.3125,6.6875c-0.00391,0.35938 0.18359,0.69531 0.49609,0.87891c0.3125,0.17969 0.69531,0.17969 1.00781,0c0.3125,-0.18359 0.5,-0.51953 0.49609,-0.87891c0,-2.98437 1.15625,-3.875 2.65625,-5.21875c1.5,-1.34375 3.3125,-3.13281 3.3125,-6.78125c0.01172,-0.28906 -0.10547,-0.56641 -0.3125,-0.76172c-0.21094,-0.19922 -0.49609,-0.29687 -0.78125,-0.26953zM28.90625,5.96875c-0.04297,0.00781 -0.08594,0.01953 -0.125,0.03125c-0.46484,0.10547 -0.79297,0.52344 -0.78125,1c0,1.95313 -0.66016,2.42578 -1.65625,3.3125c-0.99609,0.88672 -2.34375,2.19922 -2.34375,4.6875c-0.00391,0.35938 0.18359,0.69531 0.49609,0.87891c0.3125,0.17969 0.69531,0.17969 1.00781,0c0.3125,-0.18359 0.5,-0.51953 0.49609,-0.87891c0,-1.875 0.64844,-2.29297 1.65625,-3.1875c1.00781,-0.89453 2.34375,-2.26562 2.34375,-4.8125c0.01172,-0.28906 -0.10547,-0.56641 -0.3125,-0.76172c-0.21094,-0.19922 -0.49609,-0.29687 -0.78125,-0.26953zM9.8125,18c-0.29297,0.05469 -0.54687,0.23438 -0.69141,0.49609c-0.14453,0.25781 -0.16406,0.57031 -0.05859,0.84766c0.48438,1.39453 3.23828,9.78125 4.46875,27.96875c0.09375,1.39844 1.1875,2.6875 2.71875,2.6875h13.5c1.53125,0 2.625,-1.28906 2.71875,-2.6875c0.21094,-3.09375 0.47266,-5.80469 0.75,-8.34375c2.73438,-0.26562 5.30078,-0.83984 7.3125,-2.03125c2.03516,-1.20703 3.46875,-3.21484 3.46875,-5.875c0,-1.60937 -0.51562,-3.21094 -1.78125,-4.34375c-1.26562,-1.13281 -3.16016,-1.71875 -5.75,-1.71875h-1.0625c0.71484,-3.20703 1.32813,-5.07422 1.53125,-5.65625c0.11328,-0.30469 0.06641,-0.64844 -0.11719,-0.91406c-0.1875,-0.26953 -0.49219,-0.42969 -0.82031,-0.42969h-26c-0.03125,0 -0.0625,0 -0.09375,0c-0.03125,0 -0.0625,0 -0.09375,0zM11.28125,20h23.4375c-0.8125,2.51172 -3.11328,10.35547 -4.25,27.15625c-0.03125,0.46875 -0.35547,0.84375 -0.71875,0.84375h-13.5c-0.36328,0 -0.6875,-0.375 -0.71875,-0.84375c-1.13672,-16.80078 -3.4375,-24.64453 -4.25,-27.15625zM34.96875,27h1.5c2.28516,0 3.65625,0.51953 4.4375,1.21875c0.78125,0.69922 1.09375,1.625 1.09375,2.84375c0,2.00391 -0.85937,3.20313 -2.46875,4.15625c-1.49609,0.88672 -3.66406,1.41797 -6.0625,1.6875c0.48828,-3.99609 0.98828,-7.33203 1.5,-9.90625z"></path></g></g></svg>