<svg xmlns="http://www.w3.org/2000/svg" xmlns:xlink="http://www.w3.org/1999/xlink" viewBox="0,0,256,256" width="100px" height="100px"><g fill="#803d3b" fill-rule="nonzero" stroke="none" stroke-width="1" stroke-linecap="butt" stroke-linejoin="miter" stroke-miterlimit="10" stroke-dasharray="" stroke-dashoffset="0" font-family="none" font-weight="none" font-size="none" text-anchor="none" style="mix-blend-mode: normal"><g transform="scale(5.12,5.12)"><path d="M25.90625,0.96875c-0.04297,0.00781 -0.08594,0.01953 -0.125,0.03125c-0.46484,0.10547 -0.79297,0.52344 -0.78125,1c0,3.05469 -1.16406,3.97656 -2.65625,5.3125c-1.49219,1.33594 -3.3125,3.09766 -3.3125,6.6875c-0.00391,0.35938 0.18359,0.69531 0.49609,0.87891c0.3125,0.17969 0.69531,0.17969 1.00781,0c0.3125,-0.18359 0.5,-0.51953 0.49609,-0.87891c0,-2.98437 1.15625,-3.875 2.65625,-5.21875c1.5,-1.34375 3.3125,-3.13281 3.3125,-6.78125c0.01172,-0.28906 -0.10547,-0.56641 -0.3125,-0.76172c-0.21094,-0.19922 -0.49609,-0.29687 -0.78125,-0.26953zM30.90625,5.96875c-0.04297,0.00781 -0.08594,0.01953 -0.125,0.03125c-0.46484,0.10547 -0.79297,0.52344 -0.78125,1c0,1.95313 -0.66016,2.42578 -1.65625,3.3125c-0.99609,0.88672 -2.34375,2.19922 -2.34375,4.6875c-0.00391,0.35938 0.18359,0.69531 0.49609,0.87891c0.3125,0.17969 0.69531,0.17969 1.00781,0c0.3125,-0.18359 0.5,-0.51953 0.49609,-0.87891c0,-1.875 0.64844,-2.29297 1.65625,-3.1875c1.00781,-0.89453 2.34375,-2.26562 2.34375,-4.8125c0.01172,-0.28906 -0.10547,-0.56641 -0.3125,-0.76172c-0.21094,-0.19922 -0.49609,-0.29687 -0.78125,-0.26953zM10.8125,18c-0.47656,0.08984 -0.82031,0.51172 -0.8125,1v28c0,1.64453 1.35547,3 3,3h21c1.64453,0 3,-1.35547 3,-3v-6.03125c2.89453,-0.1875 5.02344,-1.69922 6.25,-3.71875c1.3125,-2.16016 1.75,-4.82812 1.75,-7.25c0,-1.29687 -0.30469,-2.54687 -1.15625,-3.5c-0.85156,-0.95312 -2.19922,-1.5 -3.84375,-1.5h-3v-6c0,-0.55078 -0.44922,-1 -1,-1h-25c-0.03125,0 -0.0625,0 -0.09375,0c-0.03125,0 -0.0625,0 -0.09375,0zM12,20h23v27c0,0.56641 -0.43359,1 -1,1h-21c-0.56641,0 -1,-0.43359 -1,-1zM37,27h3c1.24219,0 1.91797,0.33203 2.34375,0.8125c0.42578,0.48047 0.65625,1.21875 0.65625,2.1875c0,2.16016 -0.4375,4.49219 -1.46875,6.1875c-0.94531,1.55859 -2.31641,2.61719 -4.53125,2.78125z"></path></g></g></svg>