<svg xmlns="http://www.w3.org/2000/svg" xmlns:xlink="http://www.w3.org/1999/xlink" viewBox="0,0,256,256" width="100px" height="100px"><g fill="#803d3b" fill-rule="nonzero" stroke="none" stroke-width="1" stroke-linecap="butt" stroke-linejoin="miter" stroke-miterlimit="10" stroke-dasharray="" stroke-dashoffset="0" font-family="none" font-weight="none" font-size="none" text-anchor="none" style="mix-blend-mode: normal"><g transform="scale(5.12,5.12)"><path d="M12.5,4c-1.92119,0 -3.5,1.57881 -3.5,3.5c0,1.31462 0.74773,2.45489 1.83008,3.05273c-0.24164,0.61774 -0.93788,2.4189 -1.7832,5.06836c-1.01153,3.17038 -2.04687,6.91867 -2.04687,9.65234v20.72656h27.18164l8.81836,-3.30664v-19.41992c0,-2.44682 -0.90628,-5.39557 -1.92187,-8.01758c-0.70967,-1.83219 -1.45365,-3.4316 -2.05664,-4.57812c0.43188,-0.19419 0.80876,-0.46552 1.10156,-0.79492c0.59994,-0.67493 0.87695,-1.53559 0.87695,-2.38281c0,-0.84722 -0.27701,-1.70788 -0.87695,-2.38281c-0.46565,-0.52386 -1.13854,-0.8994 -1.92187,-1.04492c-0.22703,-0.04692 -0.46102,-0.07227 -0.70117,-0.07227zM12.5,6h21.82617c-0.21187,0.47731 -0.32617,0.98871 -0.32617,1.5c0,0.51129 0.1143,1.02269 0.32617,1.5h-21.82617c-0.84081,0 -1.5,-0.65919 -1.5,-1.5c0,-0.84081 0.65919,-1.5 1.5,-1.5zM37.5,6c0.84081,0 1.5,0.65919 1.5,1.5c0,0.84081 -0.65919,1.5 -1.5,1.5c-0.58333,0 -0.89356,-0.18274 -1.12695,-0.44531c-0.23339,-0.26257 -0.37305,-0.65191 -0.37305,-1.05469c0,-0.40278 0.13965,-0.79212 0.37305,-1.05469c0.23339,-0.26257 0.54362,-0.44531 1.12695,-0.44531zM12.80273,11h6.47852l-2.21289,5.63477c-0.15145,0.38557 -0.04953,0.82459 0.2563,1.104c0.30583,0.2794 0.75225,0.34135 1.1226,0.15577l3.48047,-1.74023l2.51758,1.67773c0.24934,0.16657 0.56026,0.21247 0.84709,0.12506c0.28683,-0.08741 0.51931,-0.29892 0.63338,-0.57623l2.62109,-6.38086h6.45313h0.38281c-0.70527,2.24327 -1.79875,6.05116 -2.55469,10h-23.19727c0.36226,-1.57342 0.83736,-3.24972 1.32227,-4.76953c0.92522,-2.89986 1.73501,-4.93944 1.84961,-5.23047zM21.43164,11h4.95117l-1.8457,4.49023l-1.98242,-1.32226c-0.29858,-0.19909 -0.68095,-0.22294 -1.00195,-0.0625l-1.66797,0.83398zM37,12.62891v24.08399l-3,4.80273v-13.24219c0,-4.83486 1.83371,-11.73105 3,-15.64453zM39,15.46289c0.071,0.17583 0.1424,0.33362 0.21289,0.51563c0.9724,2.51049 1.78711,5.37374 1.78711,7.29492v15.875l-2,-2.5zM9.33008,23h23.14062c-0.28389,1.82923 -0.4707,3.63562 -0.4707,5.27344v15.72656h-23v-18.72656c0,-0.59599 0.20645,-1.4913 0.33008,-2.27344zM17,25c-2.761,0 -5,3.134 -5,7c0,2.825 1.19792,5.25337 2.91992,6.35938c-0.079,-1.464 0.29308,-3.03711 1.08008,-4.53711v-3.82227c0,-0.553 0.447,-1 1,-1c0.553,0 1,0.447 1,1v1.10547c0.018,-0.018 0.03278,-0.03669 0.05078,-0.05469c1.012,-1.012 2.16028,-1.80094 3.36328,-2.33594c-0.841,-2.209 -2.50106,-3.71484 -4.41406,-3.71484zM25.12695,29.91797c-1.83,-0.05086 -3.95398,0.83875 -5.66211,2.54688c-2.734,2.734 -3.36706,6.53238 -1.41406,8.48438c1.953,1.953 5.75138,1.31894 8.48438,-1.41406c2.733,-2.733 3.36606,-6.53138 1.41406,-8.48437c-0.73238,-0.73238 -1.72427,-1.1023 -2.82227,-1.13281zM24.41406,33.58594c0.25575,0 0.51153,0.09747 0.70703,0.29297c0.391,0.391 0.391,1.02306 0,1.41406l-2.82812,2.82813c-0.195,0.195 -0.45103,0.29297 -0.70703,0.29297c-0.256,0 -0.51203,-0.09797 -0.70703,-0.29297c-0.391,-0.391 -0.391,-1.02306 0,-1.41406l2.82813,-2.82812c0.1955,-0.1955 0.45128,-0.29297 0.70703,-0.29297zM38.09961,38.72656l2.25781,2.82031l-5.25195,1.9707z"></path></g></g></svg>