<svg xmlns="http://www.w3.org/2000/svg" xmlns:xlink="http://www.w3.org/1999/xlink" viewBox="0,0,256,256" width="100px" height="100px"><g fill="#803d3b" fill-rule="nonzero" stroke="none" stroke-width="1" stroke-linecap="butt" stroke-linejoin="miter" stroke-miterlimit="10" stroke-dasharray="" stroke-dashoffset="0" font-family="none" font-weight="none" font-size="none" text-anchor="none" style="mix-blend-mode: normal"><g transform="scale(5.12,5.12)"><path d="M10,0c-1.64453,0 -3,1.35547 -3,3v15.6875c-0.05859,0.19531 -0.05859,0.39844 0,0.59375v24.71875c0,1.64453 1.35547,3 3,3v1c0,1.09375 0.90625,2 2,2h3c1.09375,0 2,-0.90625 2,-2v-1h16v1c0,1.09375 0.90625,2 2,2h3c1.09375,0 2,-0.90625 2,-2v-1c1.64453,0 3,-1.35547 3,-3v-24.8125c0.02734,-0.13281 0.02734,-0.27344 0,-0.40625v-15.78125c0,-1.64453 -1.35547,-3 -3,-3zM10,2h30c0.5625,0 1,0.4375 1,1v15h-32v-15c0,-0.5625 0.4375,-1 1,-1zM13.90625,5.96875c-0.04297,0.00781 -0.08594,0.01953 -0.125,0.03125c-0.46484,0.10547 -0.79297,0.52344 -0.78125,1v7c-0.00391,0.35938 0.18359,0.69531 0.49609,0.87891c0.3125,0.17969 0.69531,0.17969 1.00781,0c0.3125,-0.18359 0.5,-0.51953 0.49609,-0.87891v-7c0.01172,-0.28906 -0.10547,-0.56641 -0.3125,-0.76172c-0.21094,-0.19922 -0.49609,-0.29687 -0.78125,-0.26953zM9,20h32v24c0,0.5625 -0.4375,1 -1,1h-30c-0.5625,0 -1,-0.4375 -1,-1zM13.90625,22.96875c-0.04297,0.00781 -0.08594,0.01953 -0.125,0.03125c-0.46484,0.10547 -0.79297,0.52344 -0.78125,1v7c-0.00391,0.35938 0.18359,0.69531 0.49609,0.87891c0.3125,0.17969 0.69531,0.17969 1.00781,0c0.3125,-0.18359 0.5,-0.51953 0.49609,-0.87891v-7c0.01172,-0.28906 -0.10547,-0.56641 -0.3125,-0.76172c-0.21094,-0.19922 -0.49609,-0.29687 -0.78125,-0.26953zM12,47h3v1h-3zM35,47h3v1h-3z"></path></g></g></svg>