<svg xmlns="http://www.w3.org/2000/svg" xmlns:xlink="http://www.w3.org/1999/xlink" viewBox="0,0,256,256" width="100px" height="100px"><g fill="#803d3b" fill-rule="nonzero" stroke="none" stroke-width="1" stroke-linecap="butt" stroke-linejoin="miter" stroke-miterlimit="10" stroke-dasharray="" stroke-dashoffset="0" font-family="none" font-weight="none" font-size="none" text-anchor="none" style="mix-blend-mode: normal"><g transform="scale(5.12,5.12)"><path d="M25,2c-6.10937,0 -12.15625,1 -12.15625,1c-0.49219,0.07813 -0.85156,0.50391 -0.84375,1v5c-0.00391,0.29297 0.12109,0.57422 0.34766,0.76953c0.22266,0.19141 0.51563,0.27734 0.80859,0.23047c0,0 0.375,-0.05078 0.875,-0.125l0.90625,15.125h-2.9375c-0.03125,0 -0.0625,0 -0.09375,0c-0.03125,0 -0.0625,0 -0.09375,0c-0.47656,0.08984 -0.82031,0.51172 -0.8125,1v4c0,0.55078 0.44922,1 1,1h1v16c0,0.55078 0.44922,1 1,1h3c0.55078,0 1,-0.44922 1,-1v-11h14v11c0,0.55078 0.44922,1 1,1h3c0.55078,0 1,-0.44922 1,-1v-16h1c0.55078,0 1,-0.44922 1,-1v-4c0,-0.55078 -0.44922,-1 -1,-1h-2.9375l0.90625,-15.125c0.5,0.07422 0.875,0.125 0.875,0.125c0.29297,0.04688 0.58594,-0.03906 0.80859,-0.23047c0.22656,-0.19531 0.35156,-0.47656 0.34766,-0.76953v-5c0.00781,-0.49609 -0.35156,-0.92187 -0.84375,-1c0,0 -6.04687,-1 -12.15625,-1zM25,4c5.21875,0 9.87109,0.69922 11,0.875v2.96875c-1.42969,-0.21875 -5.67187,-0.82812 -10.78125,-0.84375c-0.10156,-0.02734 -0.20703,-0.03906 -0.3125,-0.03125c-0.04297,0.00781 -0.08594,0.01953 -0.125,0.03125c-5.10937,0.01563 -9.35156,0.625 -10.78125,0.84375v-2.96875c1.12891,-0.17578 5.78125,-0.875 11,-0.875zM24,9v16h-2.53125l-0.4375,-15.875c0.96484,-0.05859 1.95313,-0.10547 2.96875,-0.125zM26,9c1.01563,0.01953 2.00391,0.06641 2.96875,0.125l-0.4375,15.875h-2.53125zM19.03125,9.3125l0.4375,15.6875h-2.53125l-0.90625,-15.40625c0.86719,-0.10547 1.86719,-0.17969 3,-0.28125zM30.96875,9.3125c1.13281,0.10156 2.13281,0.17578 3,0.28125l-0.90625,15.40625h-2.53125zM13,27h24v2h-24zM15,31h1v3.53125c-0.13281,0.27734 -0.13281,0.59766 0,0.875v10.59375h-1zM18,31h14v3h-14zM34,31h1v15h-1v-10.8125c0.02734,-0.13281 0.02734,-0.27344 0,-0.40625z"></path></g></g></svg>