<svg xmlns="http://www.w3.org/2000/svg" xmlns:xlink="http://www.w3.org/1999/xlink" viewBox="0,0,256,256" width="100px" height="100px"><g fill="#803d3b" fill-rule="nonzero" stroke="none" stroke-width="1" stroke-linecap="butt" stroke-linejoin="miter" stroke-miterlimit="10" stroke-dasharray="" stroke-dashoffset="0" font-family="none" font-weight="none" font-size="none" text-anchor="none" style="mix-blend-mode: normal"><g transform="scale(2.56,2.56)"><path d="M31,17c-6.06341,0 -11,4.93659 -11,11v3c0,3.85433 3.14567,7 7,7h9v1.5c0,0.82253 0.67747,1.5 1.5,1.5h4c0.82253,0 1.5,-0.67747 1.5,-1.5v-1.5h15v37h-8.35742c2.04478,-1.65192 3.35742,-4.17586 3.35742,-7v-15c0,-1.09306 -0.90694,-2 -2,-2h-23c-1.09306,0 -2,0.90694 -2,2v4.07031c-0.17064,-0.01405 -0.32515,-0.07031 -0.5,-0.07031c-3.57827,0 -6.5,2.92173 -6.5,6.5c0,3.57827 2.92173,6.5 6.5,6.5c0.29182,0 0.55571,-0.08316 0.83594,-0.12109c0.44829,2.04541 1.56361,3.84279 3.11133,5.12109h-8.44727c-0.55226,0.00006 -0.99994,0.44774 -1,1v7c0.00006,0.55226 0.44774,0.99994 1,1h58c0.28011,-0.00009 0.54735,-0.11764 0.73669,-0.32407c0.18935,-0.20642 0.28344,-0.48279 0.2594,-0.76187l-3.92383,-45.13086c2.22241,-0.50681 3.92773,-2.41326 3.92773,-4.7832v-5c0,-6.06341 -4.93659,-11 -11,-11zM31,19h38c4.98259,0 9,4.01741 9,9v5c0,1.66848 -1.33152,3 -3,3c-0.28011,0.00009 -0.54735,0.11764 -0.73669,0.32407c-0.18935,0.20642 -0.28344,0.48279 -0.2594,0.76187l3.03711,34.91406h-17.04102v-35h10.5c0.18032,0.00255 0.34804,-0.09219 0.43894,-0.24794c0.0909,-0.15575 0.0909,-0.34838 0,-0.50413c-0.0909,-0.15575 -0.25863,-0.25049 -0.43894,-0.24794h-11.5h-32c-2.77367,0 -5,-2.22633 -5,-5v-3c0,-4.98259 4.01741,-9 9,-9zM30.5,21c-0.18032,-0.00255 -0.34804,0.09219 -0.43894,0.24794c-0.0909,0.15575 -0.0909,0.34838 0,0.50413c0.0909,0.15575 0.25863,0.25049 0.43894,0.24794h3c0.18032,0.00255 0.34804,-0.09219 0.43894,-0.24794c0.0909,-0.15575 0.0909,-0.34838 0,-0.50413c-0.0909,-0.15575 -0.25863,-0.25049 -0.43894,-0.24794zM36.5,21c-0.26266,-0.00387 -0.48353,0.19615 -0.50564,0.4579c-0.02211,0.26175 0.16207,0.49599 0.42166,0.53624c0.01617,0.00275 0.03247,0.00471 0.04883,0.00586c0.01172,0.00041 0.02344,0.00041 0.03516,0h26c0.18032,0.00255 0.34804,-0.09219 0.43894,-0.24794c0.0909,-0.15575 0.0909,-0.34838 0,-0.50413c-0.0909,-0.15575 -0.25863,-0.25049 -0.43894,-0.24794zM66.5,21c-0.26266,-0.00387 -0.48353,0.19615 -0.50564,0.4579c-0.02211,0.26175 0.16207,0.49599 0.42166,0.53624c0.01617,0.00275 0.03247,0.00471 0.04883,0.00586c0.01172,0.00041 0.02344,0.00041 0.03516,0h2c3.59578,0 6.5,2.90422 6.5,6.5v3c-0.00255,0.18032 0.09219,0.34804 0.24794,0.43894c0.15575,0.0909 0.34838,0.0909 0.50413,0c0.15575,-0.0909 0.25049,-0.25863 0.24794,-0.43894v-3c0,-4.13622 -3.36378,-7.5 -7.5,-7.5zM37,38h5v1.5c0,0.28147 -0.21853,0.5 -0.5,0.5h-4c-0.28147,0 -0.5,-0.21853 -0.5,-0.5zM69,47c-0.625,0 -1.15641,0.25238 -1.49805,0.63672c-0.34164,0.38434 -0.50195,0.87717 -0.50195,1.36328c0,0.48611 0.16032,0.97894 0.50195,1.36328c0.34164,0.38434 0.87305,0.63672 1.49805,0.63672c0.625,0 1.15641,-0.25238 1.49805,-0.63672c0.34164,-0.38434 0.50195,-0.87717 0.50195,-1.36328c0,-0.48611 -0.16032,-0.97894 -0.50195,-1.36328c-0.34164,-0.38434 -0.87305,-0.63672 -1.49805,-0.63672zM69,48c0.375,0 0.59359,0.12262 0.75195,0.30078c0.15836,0.17816 0.24805,0.43533 0.24805,0.69922c0,0.26389 -0.08968,0.52106 -0.24805,0.69922c-0.15836,0.17816 -0.37695,0.30078 -0.75195,0.30078c-0.375,0 -0.59359,-0.12262 -0.75195,-0.30078c-0.15836,-0.17816 -0.24805,-0.43533 -0.24805,-0.69922c0,-0.26389 0.08968,-0.52106 0.24805,-0.69922c0.15836,-0.17816 0.37695,-0.30078 0.75195,-0.30078zM28,53h23v2h-20.5c-0.18032,-0.00255 -0.34804,0.09219 -0.43894,0.24794c-0.0909,0.15575 -0.0909,0.34838 0,0.50413c0.0909,0.15575 0.25863,0.25049 0.43894,0.24794h20.5v12c0,3.87748 -3.12252,7 -7,7h-9c-3.64766,0 -6.62158,-2.76925 -6.96484,-6.31836c-0.0062,-0.06084 -0.01797,-0.12099 -0.03516,-0.17969v-3.00195v-2v-5.28711zM69,53c-0.625,0 -1.15641,0.25238 -1.49805,0.63672c-0.34164,0.38434 -0.50195,0.87717 -0.50195,1.36328c0,0.48611 0.16032,0.97894 0.50195,1.36328c0.34164,0.38434 0.87305,0.63672 1.49805,0.63672c0.625,0 1.15641,-0.25238 1.49805,-0.63672c0.34164,-0.38434 0.50195,-0.87717 0.50195,-1.36328c0,-0.48611 -0.16032,-0.97894 -0.50195,-1.36328c-0.34164,-0.38434 -0.87305,-0.63672 -1.49805,-0.63672zM69,54c0.375,0 0.59359,0.12262 0.75195,0.30078c0.15836,0.17816 0.24805,0.43533 0.24805,0.69922c0,0.26389 -0.08968,0.52106 -0.24805,0.69922c-0.15836,0.17816 -0.37695,0.30078 -0.75195,0.30078c-0.375,0 -0.59359,-0.12262 -0.75195,-0.30078c-0.15836,-0.17816 -0.24805,-0.43533 -0.24805,-0.69922c0,-0.26389 0.08968,-0.52106 0.24805,-0.69922c0.15836,-0.17816 0.37695,-0.30078 0.75195,-0.30078zM25.5,59c0.42247,0 0.83254,0.06176 1.22852,0.17383c0.08836,0.02477 0.17972,0.03725 0.27148,0.03711v2.30469c-0.41973,-0.31883 -0.93536,-0.51562 -1.5,-0.51562c-1.37498,0 -2.5,1.12501 -2.5,2.5c0,1.37423 1.12471,2.5 2.5,2.5h1.5v1.78125c-0.08129,0.00256 -0.16196,0.01502 -0.24023,0.03711c-0.40502,0.11762 -0.82445,0.18164 -1.25977,0.18164c-2.49773,0 -4.5,-2.00227 -4.5,-4.5c0,-2.49773 2.00227,-4.5 4.5,-4.5zM68.99219,59.99219c-0.04504,0.00115 -0.08971,0.00837 -0.13281,0.02148c-1.2229,0.03666 -2.2083,0.51779 -2.85742,1.24805c-0.67497,0.75934 -1.00195,1.75217 -1.00195,2.73828c0,0.98611 0.32698,1.97894 1.00195,2.73828c0.67497,0.75934 1.70638,1.26172 2.99805,1.26172c1.29167,0 2.32308,-0.50238 2.99805,-1.26172c0.67497,-0.75934 1.00195,-1.75217 1.00195,-2.73828c0,-0.98611 -0.32698,-1.97894 -1.00195,-2.73828c-0.6477,-0.72866 -1.63046,-1.20948 -2.84961,-1.24805c-0.05062,-0.01538 -0.10336,-0.02263 -0.15625,-0.02148zM68.5,61.04688v1.45313c-0.00255,0.18032 0.09219,0.34804 0.24794,0.43894c0.15575,0.0909 0.34838,0.0909 0.50413,0c0.15575,-0.0909 0.25049,-0.25863 0.24794,-0.43894v-1.45312c0.77139,0.10187 1.34532,0.42144 1.75195,0.87891c0.4917,0.55316 0.74805,1.31033 0.74805,2.07422c0,0.76389 -0.25635,1.52106 -0.74805,2.07422c-0.4917,0.55316 -1.21029,0.92578 -2.25195,0.92578c-1.04167,0 -1.76026,-0.37262 -2.25195,-0.92578c-0.4917,-0.55316 -0.74805,-1.31033 -0.74805,-2.07422c0,-0.76389 0.25635,-1.52106 0.74805,-2.07422c0.40663,-0.45746 0.98056,-0.77704 1.75195,-0.87891zM25.5,62c0.83501,0 1.5,0.66499 1.5,1.5v1.5h-1.5c-0.83471,0 -1.5,-0.66623 -1.5,-1.5c0,-0.83501 0.66499,-1.5 1.5,-1.5zM48.49219,62.99219c-0.13261,0.00207 -0.25896,0.05673 -0.35127,0.15197c-0.0923,0.09523 -0.14299,0.22324 -0.14092,0.35584v2c-0.00255,0.18032 0.09219,0.34804 0.24794,0.43894c0.15575,0.0909 0.34838,0.0909 0.50413,0c0.15575,-0.0909 0.25049,-0.25863 0.24794,-0.43894v-2c0.00212,-0.13532 -0.0507,-0.26572 -0.1464,-0.36141c-0.0957,-0.0957 -0.22609,-0.14852 -0.36141,-0.1464zM48.49219,67.99219c-0.13261,0.00207 -0.25896,0.05673 -0.35127,0.15197c-0.0923,0.09523 -0.14299,0.22324 -0.14092,0.35584c0,1.93874 -1.56126,3.5 -3.5,3.5h-1c-0.18032,-0.00255 -0.34804,0.09219 -0.43894,0.24794c-0.0909,0.15575 -0.0909,0.34838 0,0.50413c0.0909,0.15575 0.25863,0.25049 0.43894,0.24794h1c2.47926,0 4.5,-2.02074 4.5,-4.5c0.00212,-0.13532 -0.0507,-0.26572 -0.1464,-0.36141c-0.0957,-0.0957 -0.22609,-0.14852 -0.36141,-0.1464zM60,73h17.12695l0.26172,3h-14.88867c-0.18032,-0.00255 -0.34804,0.09219 -0.43894,0.24794c-0.0909,0.15575 -0.0909,0.34838 0,0.50413c0.0909,0.15575 0.25863,0.25049 0.43894,0.24794h14.97461l0.43555,5h-55.91016v-5h37c0.55226,-0.00006 0.99994,-0.44774 1,-1z"></path></g></g></svg>